<?xml version="1.0" standalone="no"?>
<!DOCTYPE svg PUBLIC "-//W3C//DTD SVG 1.1//EN" "http://www.w3.org/Graphics/SVG/1.1/DTD/svg11.dtd" >
<svg xmlns="http://www.w3.org/2000/svg">
<metadata></metadata>
<defs>
<font id="332-CAI978Regular" horiz-adv-x="1079" >
<font-face units-per-em="2048" ascent="1638" descent="-410" />
<missing-glyph horiz-adv-x="684" />
<glyph horiz-adv-x="0" />
<glyph horiz-adv-x="2048" />
<glyph unicode="&#xd;" horiz-adv-x="684" />
<glyph unicode=" "  horiz-adv-x="684" />
<glyph unicode="&#x09;" horiz-adv-x="684" />
<glyph unicode="&#xa0;" horiz-adv-x="684" />
<glyph unicode="!" horiz-adv-x="616" d="M109 0v262h401v-262h-401zM109 481v1016h401v-1016h-401z" />
<glyph unicode="&#x22;" horiz-adv-x="1046" d="M109 852v645h286v-645h-286zM621 852v645h284v-645h-284z" />
<glyph unicode="#" horiz-adv-x="1701" d="M82 449v118h301l70 363h-275v119h297l90 448h228l-93 -448h402l92 448h225l-90 -448h275v-119h-301l-70 -363h272v-118h-295l-90 -449h-227l92 449h-401l-92 -449h-226l90 449h-274zM606 567h404l69 363h-403z" />
<glyph unicode="$" horiz-adv-x="1562" d="M139 426h363q0 -178 33.5 -216t195.5 -40v508q-125 25 -269.5 57.5t-209.5 79.5q-102 74 -102 297q0 152 47 240q53 102 260 137q86 14 303 18v174h135v-174q190 -2 276 -12q199 -23 250 -88q37 -47 43 -141v-152h-344v105q0 82 -82 102q-25 4 -143 6v-448 q404 -61 512 -172q49 -49 63 -148q6 -45 7 -168q0 -268 -199 -350q-101 -41 -414 -51v-201h-133v203q-195 2 -280 14q-174 27 -248 113q-47 55 -55.5 118.5t-8.5 188.5zM535 1139q0 -133 55 -181q33 -28 170 -65v434q-135 -2 -168 -22q-57 -33 -57 -166zM864 172 q98 2 127 10q80 16 96 76q8 31 9 104q0 168 -36 207t-196 86v-483z" />
<glyph unicode="%" horiz-adv-x="2701" d="M51 860v381q0 150 100 212.5t369 62.5q340 0 422 -113q43 -57 43 -162v-381q0 -102 -43 -160q-82 -113 -418 -112q-135 0 -235 16q-197 35 -230 170q-8 37 -8 86zM336 854q0 -113 182 -113t182 113v238q0 63 -47 106l-317 281v-625zM598 -16l1229 1527h235l-1228 -1527 h-236zM1675 256v379q0 150 103 214.5t368 63.5q367 0 439 -141q27 -55 26 -137v-379q0 -102 -41 -160q-82 -115 -424 -114q-270 0 -374 67q-94 57 -97 207zM1962 238q0 -115 184 -115q90 0 135.5 26.5t45.5 88.5v229q-1 70 -48 113l-317 280v-622z" />
<glyph unicode="&#x26;" horiz-adv-x="1693" d="M57 260v311q0 152 150 211q78 31 262 45q-152 129 -188 172q-111 119 -111 228q0 164 106.5 225t403.5 61t426 -29.5t168 -105.5q27 -53 26 -198h-382l-340 303v-269q0 -66 34 -102l437 -453v234h344v-522l254 -240l-289 -141q-37 23 -84 88q-82 -49 -131 -64 q-92 -31 -318 -30q-16 0 -84 -1t-114 -1q-465 0 -543 155q-27 53 -27 123zM457 463q0 -25 1 -69t1 -60q0 -137 108 -160q57 -10 160 -10q197 0 238 49q23 25 22.5 69t-22.5 66l-312 293q-20 18 -63 18q-133 0 -133 -196z" />
<glyph unicode="'" horiz-adv-x="534" d="M109 852v645h284v-645h-284z" />
<glyph unicode="(" horiz-adv-x="815" d="M94 367v761q0 266 215 345q109 41 416 40v-184q-90 -8 -150 -66t-61 -157v-715q0 -188 211 -221v-186q-307 0 -416 41q-215 78 -215 342z" />
<glyph unicode=")" horiz-adv-x="884" d="M106 -16v184q90 8 150.5 66.5t60.5 156.5v715q0 190 -211 221v186q307 0 416 -40q215 -78 215 -345v-761q0 -264 -215 -342q-111 -41 -416 -41z" />
<glyph unicode="*" horiz-adv-x="1501" d="M293 948v164l362 -27l-204 349l176 75l123 -297l124 297l177 -75l-205 -349l362 27v-164l-362 37l205 -358l-174 -76l-127 305l-125 -305l-174 76l204 358z" />
<glyph unicode="+" horiz-adv-x="999" d="M57 436v174h346v437h152v-437h346v-174h-346v-436h-152v436h-346z" />
<glyph unicode="," horiz-adv-x="659" d="M106 39v280h404v-360q0 -270 -385 -287v103q102 16 145 56t43 128q0 35 -6 80h-201z" />
<glyph unicode="-" d="M156 414v268h768v-268h-768z" />
<glyph unicode="." horiz-adv-x="673" d="M119 0v319h401v-319h-401z" />
<glyph unicode="/" horiz-adv-x="1155" d="M12 -16l797 1529h299l-797 -1529h-299z" />
<glyph unicode="0" horiz-adv-x="1568" d="M106 268v961q0 156 146 219q158 66 514 65q356 0 514 -65q145 -63 145 -219v-961q0 -106 -65 -168q-129 -119 -582 -118q-240 0 -389 28.5t-216 90t-67 167.5zM586 291q0 -115 180 -115t180 115v835q0 74 -55 119l-305 250v-1204z" />
<glyph unicode="1" horiz-adv-x="899" d="M106 1368v129h674v-1497h-461v1128q0 176 -213 240z" />
<glyph unicode="2" horiz-adv-x="1349" d="M70 133q-5 224 24 295q45 117 215 195q12 6 299 106q162 57 187 123q16 41 16 319q0 66 -43 105l-252 223v-508h-420q0 303 -4 191q4 123 39 181t100 89q133 63 504 63.5t465 -94.5q47 -47 59.5 -121.5t12.5 -256t-21.5 -251.5t-94.5 -110.5t-286 -104t-295 -124.5 q-59 -45 -73 -113q-8 -32 -8 -145h763v-195h-1185z" />
<glyph unicode="3" horiz-adv-x="1462" d="M84 272q2 -50 2 177h420q0 -182 14 -216q29 -68 168 -67q84 0 126 23.5t55 76.5t13.5 145.5t-16.5 135.5l-360 317q190 0 235 17q53 18 97 94l2 155q0 41 -7.5 55.5t-41.5 45.5l-285 250v-369h-420q0 166 8 201q20 86 121 133q145 70 508 70q440 0 528 -132 q47 -68 47 -210t-22.5 -211.5t-116.5 -120.5t-176 -62q281 -51 320 -178q18 -70 18 -207t-23 -209q-47 -139 -274 -180q-137 -23 -360 -22q-457 0 -539 118q-37 53 -41 170z" />
<glyph unicode="4" horiz-adv-x="1628" d="M121 322v331l493 844h740v-977h145v-198h-145v-322h-422v322h-811zM440 520h492v860h-72z" />
<glyph unicode="5" horiz-adv-x="1427" d="M88 403h424v-139q0 -47 49 -74.5t117 -27.5t117 27.5t49 74.5v486q0 106 -176 106q-80 0 -128 -23.5t-48 -111.5h-363v776h1075v-194h-956l244 -222q39 -35 38 -86v-65q117 59 193 81.5t188 22.5q190 0 291.5 -52t102.5 -212v-479q0 -129 -74 -195.5t-209 -89.5t-346 -22 q-322 0 -451 59q-70 33 -100.5 87t-34.5 136q-2 6 -2 137z" />
<glyph unicode="6" horiz-adv-x="1472" d="M74 283v739q0 236 59.5 334t203 129t466.5 31q461 0 524 -99q31 -45 33 -188v-193h-442v99q0 59 -44 92l-333 256v-727q88 53 173 83t260 29q325 0 378 -133q27 -72 26.5 -252t-20 -273t-74.5 -140q-102 -86 -565 -86q-233 0 -332 12q-229 31 -285 131q-29 55 -28 156z M535 195q0 -66 57 -104t135 -38t134.5 37t56.5 105v380q0 127 -185 127q-82 0 -140 -30.5t-58 -91.5v-385z" />
<glyph unicode="7" horiz-adv-x="1261" d="M59 1303v194h1119v-223l-492 -1274h-461l516 1303h-682z" />
<glyph unicode="8" horiz-adv-x="1619" d="M145 380q0 120 21 187q27 94 164 150l219 63q-127 33 -171 46.5t-98.5 45t-72.5 82.5q-25 57 -25 187.5t43 212.5q37 76 172 118.5t428 43.5q498 0 578 -162q41 -80 41 -225.5t-41 -207t-129 -89t-178 -52.5q135 -35 177 -49.5t106.5 -59t85 -110.5t18.5 -158 q0 -170 -67 -256q-127 -165 -622 -165t-604 198q-45 80 -45 200zM625 276q0 -114 189.5 -114.5t189.5 114.5v293q0 59 -54 88q-45 27 -135 27q-190 0 -190 -115v-293zM625 954q0 -121 189.5 -120.5t189.5 120.5v109q-1 72 -54 119l-325 288v-516z" />
<glyph unicode="9" horiz-adv-x="1603" d="M153.5 1014q0.5 180 19.5 273t75 140q102 86 565 86q233 0 332 -12q229 -31 285 -131q31 -55 30 -156v-739q0 -236 -60 -334t-204 -129t-467 -30q-461 0 -524 98q-29 45 -33 158q2 -46 2 161h440q0 -86 -2 -73q4 -29 47 -57.5t334 -254.5v727q-90 -53 -174 -83t-259 -30 q-325 1 -378 134q-29 72 -28.5 252zM614 922q0 -129 185 -127q82 0 135 28q66 33 65 95v174q0 61 -47 100l-338 299v-569z" />
<glyph unicode=":" horiz-adv-x="610" d="M94 0v266h404v-266h-404zM94 788v267h404v-267h-404z" />
<glyph unicode=";" horiz-adv-x="606" d="M90 18v263h404v-338q0 -254 -385 -271v97q100 14 144 52t44 122q0 33 -6 75h-201zM90 795v260h404v-260h-404z" />
<glyph unicode="&#x3c;" horiz-adv-x="843" d="M23 451v143l784 457v-162l-637 -365l637 -366v-160z" />
<glyph unicode="=" horiz-adv-x="845" d="M39 176v180h784v-180h-784zM39 690v180h784v-180h-784z" />
<glyph unicode="&#x3e;" horiz-adv-x="829" d="M23 -2v160l636 366l-636 365v162l784 -457v-143z" />
<glyph unicode="?" horiz-adv-x="1396" d="M82 1092q0 129 4 157q8 92 51 150.5t162 87.5t379 29q399 0 518 -76q59 -37 84 -113t25 -237.5t-39 -223t-185 -118.5q-74 -31 -180 -89q-35 -31 -41 -81q-2 -11 -2 -99h-420q0 201 17 234q27 51 202 125t195 159q12 53 12 158q-4 10 -45 47l-315 283v-393h-422zM438 0 v260h420v-260h-420z" />
<glyph unicode="@" horiz-adv-x="1370" d="M78 745q0 213 95 396.5t278 273.5q115 59 239 60q223 0 389 -166t166 -431t-153 -419q-129 -127 -238 -127q-37 0 -57.5 20t-22.5 88q-102 -98 -205 -98q-123 0 -198 160q-35 74 -35 170q0 166 92 301t223 135t215 -152l27 127h108l-75 -454q-6 -33 -6 -58q0 -84 49 -84 q55 0 110 95q63 104 64 241q0 260 -130 399.5t-317 139.5q-219 0 -352 -175t-133 -430t134 -440.5t370 -185.5q188 0 329 139l99 -4q-172 -246 -452 -246t-453 226q-160 205 -160 499zM489.5 694.5q-0.5 -112.5 39.5 -163t108 -50.5t130 75t62 185.5t-40.5 163.5t-109.5 53 t-129 -75.5t-60.5 -188z" />
<glyph unicode="A" horiz-adv-x="1669" d="M102 0l338 1497h813l338 -1497h-467l-10 59q-12 63 -65 111l-383 336l-97 -506h-467zM672 573h352l-170 900z" />
<glyph unicode="B" horiz-adv-x="1583" d="M100 0v1497h756q348 0 450.5 -65.5t102.5 -266.5q0 -92 -27 -181t-131 -136q-66 -31 -196 -45q176 0 278 -94q113 -100 113 -299q0 -145 -38 -236.5t-145.5 -132.5t-316.5 -41h-846zM561 125h199q102 0 145 29q59 39 60 137v26q0 104 -39 158q-10 14 -111 105l-254 231 v-686zM561 850h199q88 0 129 18q59 27 72 101q5 31 5 75v22q-2 58 -51 101l-354 316v-633z" />
<glyph unicode="C" horiz-adv-x="1452" d="M78 283v886q0 176 110 258q90 68 293 82q41 4 341 4t418 -57t118 -174v-250h-440v86q0 63 -48 105l-313 270v-1257q0 -51 58 -83t132.5 -32t122.5 28.5t48 86.5v272h440q0 -202 1 -202l1 22q-2 -117 -31 -178q-53 -111 -248 -146q-100 -20 -209 -20h-165q-59 -2 -95 -2 q-535 0 -534 301z" />
<glyph unicode="D" horiz-adv-x="1529" d="M100 0v1497h662q268 0 393 -39q145 -47 197 -203q34 -101 34 -298v-11q0 -430 2 -430q1 0 3 86q-4 -246 -36 -352.5t-95 -157.5q-115 -92 -498 -92h-662zM561 131q4 0 42 -1t67 -1q256 0 256 119v844q0 69 -43 108l-322 285v-1354z" />
<glyph unicode="E" horiz-adv-x="1153" d="M70 0v1497h956v-207h-825l288 -266q31 -27 36 -35t5 -45v-74h459v-196h-459v-467h537v-207h-997z" />
<glyph unicode="F" horiz-adv-x="1103" d="M70 0v1497h938v-207h-807l288 -270q37 -33 39 -38t2 -54v-101h435v-209h-435v-618h-460z" />
<glyph unicode="G" horiz-adv-x="1531" d="M92 268v961q0 156 153 221q151 63 502 63h11q229 0 370.5 -26.5t203.5 -88.5t77 -179q2 -35 2 -195h-440v59q0 57 -51 101l-349 303v-1227q0 -51 63.5 -82t144.5 -31t136 29t56 84v293h-166v221h606v-469q0 -106 -30.5 -165.5t-102.5 -94.5q-131 -61 -443.5 -61 t-461 27.5t-215 89t-66.5 167.5z" />
<glyph unicode="H" horiz-adv-x="1542" d="M113 0v1497h460v-614h392v614h458v-1497h-458v446q0 51 -2 56.5t-39 36.5l-351 313v-852h-460z" />
<glyph unicode="I" horiz-adv-x="692" d="M113 0v1497h460v-1497h-460z" />
<glyph unicode="J" horiz-adv-x="1521" d="M90 328q4 -117 33 -178q51 -111 246 -146q102 -20 209 -20h167q57 -2 95 -2q532 0 532 301v1214h-479v-1261q0 -51 -58.5 -83t-131.5 -32t-122 28.5t-49 86.5v272h-440q0 -202 -1 -202t-1 22z" />
<glyph unicode="K" horiz-adv-x="1495" d="M61 0v1497h461v-666l391 666h445l-473 -709q63 -2 123.5 -45t93.5 -106l348 -637h-457l-334 578q-68 115 -137 122v-700h-461z" />
<glyph unicode="L" horiz-adv-x="1146" d="M102 0v1497h461v-940q0 -57 -2 -63.5t-35 -34.5l-272 -252h831v-207h-983z" />
<glyph unicode="M" horiz-adv-x="2375" d="M113 0v1497h522l551 -1235l549 1235h522v-1497h-402v584l183 686l-559 -1270h-588l-559 1270l182 -686v-584h-401z" />
<glyph unicode="N" horiz-adv-x="1687" d="M113 0v1497h553l583 -1030v1030h320v-1497h-563l-676 1272l114 -508v-764h-331z" />
<glyph unicode="O" horiz-adv-x="1568" d="M106 268v961q0 156 146 219q156 65 503 65h11q356 0 514 -65q145 -63 145 -219v-961q0 -106 -65 -168q-128 -118 -574 -118h-8q-240 0 -389 28.5t-216 90t-67 167.5zM586 225q0 -53 53 -83.5t126 -30.5t127 30.5t54 83.5v905q0 47 -10 70.5t-45 52.5l-305 244v-1272z" />
<glyph unicode="P" horiz-adv-x="1449" d="M63 0v1497h738q389 0 502 -143q59 -76 59 -203v-244q0 -246 -217 -325q-121 -45 -402 -45h-219v-537h-461zM524 739h142q127 0 176 21q88 37 88 151v148q-1 70 -56 117l-350 309v-746z" />
<glyph unicode="Q" horiz-adv-x="1495" d="M80 272v957q0 156 145 219q156 65 503 65h11q356 0 514 -65q145 -63 146 -219v-957q0 -104 -43 -147q-102 -102 -369 -131q70 -45 151.5 -146.5t114.5 -164.5h-446q-20 186 -105 299q-430 6 -557 122q-66 61 -65 168zM559 393q0 -84 68 -139l293 -234v1072q0 78 -64 133 l-297 256v-1088z" />
<glyph unicode="R" horiz-adv-x="1574" d="M109 0v1497h624q539 0 645 -129q57 -72 58 -207v-149q0 -154 -111.5 -245t-255.5 -91q72 0 183.5 -37t147.5 -82t36 -125v-242q0 -98 55 -190h-461q-55 96 -55 190v140q0 94 -105 182l-303 260v-772h-458zM567 780h144q127 0 176 21q88 37 88 151v127q0 52 -55 101 l-353 305v-705z" />
<glyph unicode="S" horiz-adv-x="1482" d="M84 362v115h420v-63q0 -43 4 -50.5t37 -35.5l358 -316v465q0 70 -29 105q-41 49 -229 80q-268 41 -330 59q-178 53 -213 166q-18 57 -18 243.5t53 260t186 99.5t377 26q459 0 562 -117q45 -51 55 -123q2 -23 2 -137v-111h-410v51q0 47 -8 59.5t-51 51.5l-326 280v-301 q0 -121 2 -125q6 -74 48 -104.5t224.5 -62t227.5 -41.5q186 -43 243.5 -89.5t76 -118t18.5 -241.5t-61.5 -255t-197.5 -118q-132 -32 -389 -32h-16q-481 0 -569 139q-37 57 -42 98.5t-5 142.5z" />
<glyph unicode="T" horiz-adv-x="1361" d="M92 1290v207h1215v-207h-705l262 -231q63 -57 64 -135v-924h-461v1290h-375z" />
<glyph unicode="U" horiz-adv-x="1544" d="M109 340v1157h460v-1096q0 -78 49 -122l318 -281v1499h461v-1157q0 -119 -41 -190q-66 -115 -277 -150q-98 -16 -325 -16t-330 16q-209 37 -274 152q-41 70 -41 188z" />
<glyph unicode="V" horiz-adv-x="1624" d="M96 1497h471l285 -1380l219 1380h471l-297 -1497h-852z" />
<glyph unicode="W" horiz-adv-x="2299" d="M94 1497h438l156 -627l170 -714l-88 712l172 629h502l368 -1341l-112 714l155 627h347l-326 -1497h-432l-268 1098l-308 -1098h-448z" />
<glyph unicode="X" horiz-adv-x="1378" d="M119 2l276 786l-264 709h444l185 -657v336l139 321h401l-276 -709l264 -786h-444l-187 735v-338l-137 -397h-401z" />
<glyph unicode="Y" horiz-adv-x="1517" d="M76 1497h444l219 -448l-61 -392l342 840h444l-473 -1020v-477h-442v477z" />
<glyph unicode="Z" horiz-adv-x="1333" d="M121 0v223l575 971l342 96h-856v207h1043v-227l-629 -1063h629v-207h-1104z" />
<glyph unicode="[" horiz-adv-x="815" d="M96 0v1497h631v-182h-211v-1133h211v-182h-631z" />
<glyph unicode="\" horiz-adv-x="1155" d="M12 1513h299l797 -1529h-299z" />
<glyph unicode="]" horiz-adv-x="862" d="M113 0v182h211v1133h-211v182h630v-1497h-630z" />
<glyph unicode="^" horiz-adv-x="1505" d="M57 721l533 776h282l533 -776h-262l-412 633l-412 -633h-262z" />
<glyph unicode="_" horiz-adv-x="1658" d="M66 -156h1546v-102h-1546v102z" />
<glyph unicode="`" horiz-adv-x="784" d="M59 1497h363l231 -305h-223z" />
<glyph unicode="a" horiz-adv-x="1669" d="M102 0l338 1497h813l338 -1497h-467l-10 59q-12 63 -65 111l-383 336l-97 -506h-467zM672 573h352l-170 900z" />
<glyph unicode="b" horiz-adv-x="1583" d="M100 0v1497h756q348 0 450.5 -65.5t102.5 -266.5q0 -92 -27 -181t-131 -136q-66 -31 -196 -45q176 0 278 -94q113 -100 113 -299q0 -145 -38 -236.5t-145.5 -132.5t-316.5 -41h-846zM561 125h199q102 0 145 29q59 39 60 137v26q0 104 -39 158q-10 14 -111 105l-254 231 v-686zM561 850h199q88 0 129 18q59 27 72 101q5 31 5 75v22q-2 58 -51 101l-354 316v-633z" />
<glyph unicode="c" horiz-adv-x="1452" d="M78 283v886q0 176 110 258q90 68 293 82q41 4 341 4t418 -57t118 -174v-250h-440v86q0 63 -48 105l-313 270v-1257q0 -51 58 -83t132.5 -32t122.5 28.5t48 86.5v272h440q0 -202 1 -202l1 22q-2 -117 -31 -178q-53 -111 -248 -146q-100 -20 -209 -20h-165q-59 -2 -95 -2 q-535 0 -534 301z" />
<glyph unicode="d" horiz-adv-x="1529" d="M100 0v1497h662q268 0 393 -39q145 -47 197 -203q34 -101 34 -298v-11q0 -430 2 -430q1 0 3 86q-4 -246 -36 -352.5t-95 -157.5q-115 -92 -498 -92h-662zM561 131q4 0 42 -1t67 -1q256 0 256 119v844q0 69 -43 108l-322 285v-1354z" />
<glyph unicode="e" horiz-adv-x="1153" d="M70 0v1497h956v-207h-825l288 -266q31 -27 36 -35t5 -45v-74h459v-196h-459v-467h537v-207h-997z" />
<glyph unicode="f" horiz-adv-x="1103" d="M70 0v1497h938v-207h-807l288 -270q37 -33 39 -38t2 -54v-101h435v-209h-435v-618h-460z" />
<glyph unicode="g" horiz-adv-x="1531" d="M92 268v961q0 156 153 221q151 63 502 63h11q229 0 370.5 -26.5t203.5 -88.5t77 -179q2 -35 2 -195h-440v59q0 57 -51 101l-349 303v-1227q0 -51 63.5 -82t144.5 -31t136 29t56 84v293h-166v221h606v-469q0 -106 -30.5 -165.5t-102.5 -94.5q-131 -61 -443.5 -61 t-461 27.5t-215 89t-66.5 167.5z" />
<glyph unicode="h" horiz-adv-x="1542" d="M113 0v1497h460v-614h392v614h458v-1497h-458v446q0 51 -2 56.5t-39 36.5l-351 313v-852h-460z" />
<glyph unicode="i" horiz-adv-x="692" d="M113 0v1497h460v-1497h-460z" />
<glyph unicode="j" horiz-adv-x="1521" d="M90 328q4 -117 33 -178q51 -111 246 -146q102 -20 209 -20h167q57 -2 95 -2q532 0 532 301v1214h-479v-1261q0 -51 -58.5 -83t-131.5 -32t-122 28.5t-49 86.5v272h-440q0 -202 -1 -202t-1 22z" />
<glyph unicode="k" horiz-adv-x="1495" d="M61 0v1497h461v-666l391 666h445l-473 -709q63 -2 123.5 -45t93.5 -106l348 -637h-457l-334 578q-68 115 -137 122v-700h-461z" />
<glyph unicode="l" horiz-adv-x="1146" d="M102 0v1497h461v-940q0 -57 -2 -63.5t-35 -34.5l-272 -252h831v-207h-983z" />
<glyph unicode="m" horiz-adv-x="2375" d="M113 0v1497h522l551 -1235l549 1235h522v-1497h-402v584l183 686l-559 -1270h-588l-559 1270l182 -686v-584h-401z" />
<glyph unicode="n" horiz-adv-x="1687" d="M113 0v1497h553l583 -1030v1030h320v-1497h-563l-676 1272l114 -508v-764h-331z" />
<glyph unicode="o" horiz-adv-x="1568" d="M106 268v961q0 156 146 219q156 65 503 65h11q356 0 514 -65q145 -63 145 -219v-961q0 -106 -65 -168q-128 -118 -574 -118h-8q-240 0 -389 28.5t-216 90t-67 167.5zM586 225q0 -53 53 -83.5t126 -30.5t127 30.5t54 83.5v905q0 47 -10 70.5t-45 52.5l-305 244v-1272z" />
<glyph unicode="p" horiz-adv-x="1449" d="M63 0v1497h736q391 0 504 -143q59 -76 59 -203v-244q0 -246 -217 -325q-121 -45 -402 -45h-219v-537h-461zM524 739h142q127 0 176 21q88 37 88 151v148q-1 70 -56 117l-350 309v-746z" />
<glyph unicode="q" horiz-adv-x="1495" d="M80 272v957q0 156 145 219q156 65 503 65h11q356 0 514 -65q145 -63 146 -219v-957q0 -104 -43 -147q-102 -102 -369 -131q70 -45 151.5 -146.5t114.5 -164.5h-446q-20 186 -105 299q-430 6 -557 122q-66 61 -65 168zM559 393q0 -84 68 -139l293 -234v1072q0 78 -64 133 l-297 256v-1088z" />
<glyph unicode="r" horiz-adv-x="1574" d="M109 0v1497h624q539 0 645 -129q57 -72 58 -207v-149q0 -154 -111.5 -245t-255.5 -91q72 0 183.5 -37t147.5 -82t36 -125v-242q0 -98 55 -190h-461q-55 96 -55 190v140q0 94 -105 182l-303 260v-772h-458zM567 780h144q127 0 176 21q88 37 88 151v127q0 52 -55 101 l-353 305v-705z" />
<glyph unicode="s" horiz-adv-x="1482" d="M84 362v115h420v-63q0 -43 4 -50.5t37 -35.5l358 -316v465q0 70 -29 105q-41 49 -229 80q-268 41 -330 59q-178 53 -213 166q-18 57 -18 243.5t53 260t186 99.5t377 26q459 0 562 -117q45 -51 55 -123q2 -23 2 -137v-111h-410v51q0 47 -8 59.5t-51 51.5l-326 280v-301 q0 -121 2 -125q6 -74 48 -104.5t224.5 -62t227.5 -41.5q186 -43 243.5 -89.5t76 -118t18.5 -241.5t-61.5 -255t-197.5 -118q-132 -32 -389 -32h-16q-481 0 -569 139q-37 57 -42 98.5t-5 142.5z" />
<glyph unicode="t" horiz-adv-x="1361" d="M92 1290v207h1215v-207h-705l262 -231q63 -57 64 -135v-924h-461v1290h-375z" />
<glyph unicode="u" horiz-adv-x="1544" d="M109 340v1157h460v-1096q0 -78 49 -122l318 -281v1499h461v-1157q0 -119 -41 -190q-66 -115 -277 -150q-98 -16 -325 -16t-330 16q-209 37 -274 152q-41 70 -41 188z" />
<glyph unicode="v" horiz-adv-x="1624" d="M96 1497h471l285 -1380l219 1380h471l-297 -1497h-852z" />
<glyph unicode="w" horiz-adv-x="2398" d="M94 1497h438l156 -627l170 -714l-88 712l172 629h502l368 -1341l-112 714l155 627h347l-326 -1497h-432l-268 1098l-308 -1098h-448z" />
<glyph unicode="x" horiz-adv-x="1378" d="M119 2l276 786l-264 709h444l185 -657v336l139 321h401l-276 -709l264 -786h-444l-187 735v-338l-137 -397h-401z" />
<glyph unicode="y" horiz-adv-x="1517" d="M76 1497h444l219 -448l-61 -392l342 840h444l-473 -1020v-477h-442v477z" />
<glyph unicode="z" horiz-adv-x="1333" d="M121 0v223l575 971l342 96h-856v207h1043v-227l-629 -1063h629v-207h-1104z" />
<glyph unicode="{" horiz-adv-x="1028" d="M49 662q84 -8 153 -49.5t68 -120.5v-254q0 -238 365 -238h301v182q-137 0 -185.5 27t-56.5 106q-2 20 -2 222q0 96 -108 149q-70 37 -226 66q119 27 226.5 93t107.5 118q0 201 2 221q8 78 56.5 104.5t185.5 26.5v182h-301q-365 0 -365 -237v-254q0 -80 -68 -121t-153 -49 v-174z" />
<glyph unicode="|" horiz-adv-x="514" d="M113 -16v1529h284v-1529h-284z" />
<glyph unicode="}" horiz-adv-x="1062" d="M68 0v182q137 0 185 27t58 106q2 20 2 222q0 96 107 149q72 37 225 66q-117 27 -224.5 93t-107.5 118q0 201 -4 221q-8 78 -56 104.5t-185 26.5v182h301q365 0 364 -237v-254q0 -80 69.5 -121t151.5 -49v-174q-82 -8 -141 -44q-80 -47 -80 -126v-254q0 -238 -364 -238 h-301z" />
<glyph unicode="~" horiz-adv-x="1609" d="M76 711q133 178 350 178q100 0 187.5 -24.5t264.5 -84t255 -59.5q137 0 272 147l78 -163q-166 -180 -357 -181q-125 0 -327.5 84t-345.5 84q-188 0 -299 -139z" />
<glyph unicode="&#xad;" d="M156 414v268h768v-268h-768z" />
<glyph unicode="&#x2000;" horiz-adv-x="840" />
<glyph unicode="&#x2001;" horiz-adv-x="1681" />
<glyph unicode="&#x2002;" horiz-adv-x="840" />
<glyph unicode="&#x2003;" horiz-adv-x="1681" />
<glyph unicode="&#x2004;" horiz-adv-x="560" />
<glyph unicode="&#x2005;" horiz-adv-x="420" />
<glyph unicode="&#x2006;" horiz-adv-x="280" />
<glyph unicode="&#x2007;" horiz-adv-x="280" />
<glyph unicode="&#x2008;" horiz-adv-x="210" />
<glyph unicode="&#x2009;" horiz-adv-x="336" />
<glyph unicode="&#x200a;" horiz-adv-x="93" />
<glyph unicode="&#x2010;" d="M156 414v268h768v-268h-768z" />
<glyph unicode="&#x2011;" d="M156 414v268h768v-268h-768z" />
<glyph unicode="&#x2012;" d="M156 414v268h768v-268h-768z" />
<glyph unicode="&#x2013;" horiz-adv-x="1335" d="M156 414v268h1024v-268h-1024z" />
<glyph unicode="&#x2014;" horiz-adv-x="2359" d="M156 414v268h2048v-268h-2048z" />
<glyph unicode="&#x2018;" horiz-adv-x="692" d="M152 852v360q0 268 385 285v-102q-201 -31 -191 -185q2 -53 2 -80h205v-278h-401z" />
<glyph unicode="&#x2019;" horiz-adv-x="690" d="M154 1221v276h401v-358q0 -268 -385 -287v102q102 16 146 58.5t44 130.5q0 33 -6 78h-200z" />
<glyph unicode="&#x201a;" horiz-adv-x="712" d="M162 39v280h401v-360q0 -268 -387 -287v103q102 16 146.5 57t44.5 129q0 35 -7 78h-198z" />
<glyph unicode="&#x201c;" horiz-adv-x="1312" d="M145 852v360q0 145 109.5 210.5t273.5 74.5v-102q-188 -29 -188 -181q0 -37 8 -84h199v-278h-402zM772 852v360q0 268 385 285v-102q-190 -29 -190 -183q0 -35 8 -82h199v-278h-402z" />
<glyph unicode="&#x201d;" horiz-adv-x="1310" d="M147 1221v276h402v-358q0 -268 -385 -287v102q190 29 190 183q0 37 -8 84h-199zM774 1221v276h402v-358q0 -268 -385 -287v102q190 29 190 183q0 37 -8 84h-199z" />
<glyph unicode="&#x201e;" horiz-adv-x="1333" d="M154 39v280h403v-360q0 -270 -387 -287v103q193 29 192 180q0 39 -10 84h-198zM782 39v280h402v-360q0 -268 -387 -287v103q193 29 192 180q0 39 -10 84h-197z" />
<glyph unicode="&#x2022;" horiz-adv-x="1323" d="M90 750q0 96 74 184t205 138t284.5 50t290.5 -59t205 -172q41 -65 41 -140t-41 -143q-70 -113 -206 -172t-298 -59q-221 0 -388 102t-167 271z" />
<glyph unicode="&#x2026;" horiz-adv-x="2838" d="M119 0v319h401v-319h-401zM1200 0v319h404v-319h-404zM2284 0v319h403v-319h-403z" />
<glyph unicode="&#x202f;" horiz-adv-x="336" />
<glyph unicode="&#x205f;" horiz-adv-x="420" />
<glyph unicode="&#xe000;" horiz-adv-x="1495" d="M0 0v1495h1495v-1495h-1495z" />
</font>
</defs>
</svg>
